<?xml version="1.0" encoding="utf-8"?>
<!-- Generator: Adobe Illustrator 24.3.0, SVG Export Plug-In . SVG Version: 6.00 Build 0)  -->
<svg version="1.1" id="圖層_1" xmlns="http://www.w3.org/2000/svg" xmlns:xlink="http://www.w3.org/1999/xlink" x="0px" y="0px"
	 viewBox="0 0 40.7 27.9" style="enable-background:new 0 0 40.7 27.9;" xml:space="preserve">
<style type="text/css">
	.st0{fill:#FFFFFF;}
</style>
<g>
	<path class="st0" d="M6,22.2c-0.4,0-0.8-0.1-1.1-0.4c-0.6-0.6-0.6-1.5,0-2.1l6-6L4.7,7.5C4.1,6.9,4.1,6,4.7,5.4s1.5-0.6,2.1,0
		l7.2,7.2c0.6,0.6,0.6,1.5,0,2.1l-7.1,7.1C6.7,22.1,6.4,22.2,6,22.2z"/>
	<path class="st0" d="M16.7,22.2c-0.4,0-0.8-0.1-1.1-0.4c-0.6-0.6-0.6-1.5,0-2.1l6-6l-6.2-6.2c-0.6-0.6-0.6-1.5,0-2.1s1.5-0.6,2.1,0
		l7.2,7.2c0.6,0.6,0.6,1.5,0,2.1l-7.1,7.1C17.5,22.1,17.1,22.2,16.7,22.2z"/>
	<path class="st0" d="M27.5,22.2c-0.4,0-0.8-0.1-1.1-0.4c-0.6-0.6-0.6-1.5,0-2.1l6-6l-6.2-6.2c-0.6-0.6-0.6-1.5,0-2.1s1.5-0.6,2.1,0
		l7.2,7.2c0.6,0.6,0.6,1.5,0,2.1l-7.1,7.1C28.3,22.1,27.9,22.2,27.5,22.2z"/>
</g>
</svg>
