<svg id="圖層_1" xmlns="http://www.w3.org/2000/svg" viewBox="0 0 18 18"><style>.st0{enable-background:new}</style><path class="st0" d="M16.5 0H6c-.4 0-.8.2-1.1.4-.2.3-.4.7-.4 1.1v.9c0 .1.1.3.2.4.1.1.2.2.4.2H12c.8 0 1.6.3 2.1.9.6.5.9 1.3.9 2.1v6.9c0 .1.1.3.2.4.1.1.2.2.4.2h.9c.4 0 .8-.2 1.1-.4.3-.3.4-.7.4-1.1V1.5c0-.4-.2-.8-.4-1.1-.3-.2-.7-.4-1.1-.4zM12 4.5H1.5c-.4 0-.8.2-1.1.4-.2.3-.4.7-.4 1.1v10.5c0 .4.2.8.4 1.1.3.2.7.4 1.1.4H12c.4 0 .8-.2 1.1-.4.3-.3.4-.7.4-1.1V6c0-.4-.2-.8-.4-1.1-.3-.2-.7-.4-1.1-.4zm-1.5 10.1v.1s0 .1-.1.1l-.1.1h-7s-.1 0-.1-.1l-.1-.1v-.9s0-.1.1-.1l.1-.1h6.9s.1 0 .1.1l.1.1v.8zm0-3v.1s0 .1-.1.1l-.1.1h-7s-.1 0-.1-.1l-.1-.1v-.9s0-.1.1-.1l.1-.1h6.9s.1 0 .1.1l.1.1v.8zm0-3v.1s0 .1-.1.1l-.1.1H3.4c-.1.1-.1.1-.2.1 0 0-.1 0-.1-.1L3 8.8v-1s0-.1.1-.1l.1-.1h6.9s.1 0 .1.1l.1.1v.8z"/></svg>