<svg width="18" height="18" viewBox="0 0 18 18" fill="none" xmlns="http://www.w3.org/2000/svg"><path opacity=".4" d="M16.5 0H6a1.504 1.504 0 0 0-1.5 1.5v.937A.576.576 0 0 0 5.063 3H12a3.009 3.009 0 0 1 3 3v6.937a.577.577 0 0 0 .563.563h.937A1.504 1.504 0 0 0 18 12V1.5A1.505 1.505 0 0 0 16.5 0zM12 4.5H1.5A1.504 1.504 0 0 0 0 6v10.5A1.505 1.505 0 0 0 1.5 18H12a1.504 1.504 0 0 0 1.5-1.5V6A1.503 1.503 0 0 0 12 4.5zm-1.5 10.125a.354.354 0 0 1-.375.375h-6.75A.355.355 0 0 1 3 14.625v-.75a.355.355 0 0 1 .375-.376h6.75a.354.354 0 0 1 .374.376v.75zm0-3a.354.354 0 0 1-.375.375h-6.75A.355.355 0 0 1 3 11.625v-.75a.355.355 0 0 1 .375-.376h6.75a.354.354 0 0 1 .374.376v.75zm0-3a.354.354 0 0 1-.375.375h-6.75A.355.355 0 0 1 3 8.625v-.75a.354.354 0 0 1 .375-.375h6.75a.353.353 0 0 1 .374.375v.75z" fill="#000"/></svg>