<svg id="圖層_1" xmlns="http://www.w3.org/2000/svg" viewBox="0 0 200 200"><style>.st0{fill:#fff}</style><path class="st0" d="M131.2 162.5H43.8c-10.3 0-18.8-8.4-18.8-18.8V31.2c0-10.3 8.4-18.8 18.8-18.8h87.5c10.3 0 18.8 8.4 18.8 18.8v112.5c-.1 10.4-8.5 18.8-18.9 18.8zM43.8 25c-3.4 0-6.2 2.8-6.2 6.2v112.5c0 3.4 2.8 6.2 6.2 6.2h87.5c3.4 0 6.2-2.8 6.2-6.2V31.2c0-3.4-2.8-6.2-6.2-6.2H43.8z"/><path class="st0" d="M156.2 187.5H62.5c-3.5 0-6.2-2.8-6.2-6.2s2.8-6.2 6.2-6.2h93.8c3.4 0 6.2-2.8 6.2-6.2V50c0-3.5 2.8-6.2 6.2-6.2s6.2 2.8 6.2 6.2v118.8c.1 10.3-8.3 18.7-18.7 18.7zm-50-125h-50c-3.5 0-6.2-2.8-6.2-6.2s2.8-6.2 6.2-6.2h50c3.5 0 6.2 2.8 6.2 6.2s-2.7 6.2-6.2 6.2zm12.6 31.3H56.3c-3.5 0-6.2-2.8-6.2-6.2s2.8-6.2 6.2-6.2h62.5c3.5 0 6.2 2.8 6.2 6.2s-2.8 6.2-6.2 6.2z"/><path class="st0" d="M118.8 125H56.2c-3.5 0-6.2-2.8-6.2-6.2s2.8-6.2 6.2-6.2h62.5c3.5 0 6.2 2.8 6.2 6.2s-2.7 6.2-6.1 6.2z"/></svg>