<svg id="圖層_1" xmlns="http://www.w3.org/2000/svg" viewBox="0 0 200 200"><style>.st0{fill:#fff}</style><path class="st0" d="M91.7 111.4v-50h16.7v50h25L100 147.7l-33.3-36.3h25zM200 125c0 27.9-20.3 50-46.2 50h-100C24.2 175 0 148.8 0 116.7c0-28.4 18.5-52 44.2-57.5C55.5 38.2 76.5 25 100 25c29.8 0 55.1 21.2 63.2 51 20.8 4.8 36.8 25.4 36.8 49zm-50.6-40.1c-4.8-25.2-25.2-43.5-49.4-43.5-19 0-35.7 11.2-43.9 28.8l-1.8 3.9-4.1.6c-20.2 2.9-34.8 20.4-34.8 42 0 23 17.3 41.9 38.5 41.9h100c17.3 0 30.8-14.7 30.8-33.5 0-17.2-12.9-32.2-28.3-33.6l-5.8-.5-1.2-6.1z"/></svg>