<svg width="20" height="17" viewBox="0 0 20 17" fill="none" xmlns="http://www.w3.org/2000/svg"><path opacity=".4" d="M13.978 2.76l3.131 2.995a.319.319 0 0 1 .099.23.319.319 0 0 1-.099.228l-7.582 7.254-3.222.34a.703.703 0 0 1-.553-.185.62.62 0 0 1-.193-.53l.355-3.081 7.584-7.251a.35.35 0 0 1 .48 0zM19.602 2L17.907.378A1.39 1.39 0 0 0 16.95 0c-.359 0-.703.136-.958.379l-1.229 1.175a.319.319 0 0 0-.098.23.32.32 0 0 0 .098.229l3.132 3a.348.348 0 0 0 .48 0l1.229-1.176c.254-.244.397-.574.397-.919 0-.344-.143-.675-.398-.919zm-6.27 9.494v3.38H2.222V4.249h7.979a.438.438 0 0 0 .295-.117l1.388-1.328a.383.383 0 0 0 .09-.434.403.403 0 0 0-.154-.18.43.43 0 0 0-.23-.067H1.666c-.442 0-.866.169-1.179.468A1.56 1.56 0 0 0 0 3.716v11.69c0 .423.176.828.488 1.127.313.299.737.467 1.179.467h12.22c.442 0 .866-.168 1.179-.467a1.56 1.56 0 0 0 .488-1.127v-5.24a.388.388 0 0 0-.071-.22.414.414 0 0 0-.187-.147.436.436 0 0 0-.453.084l-1.388 1.328a.4.4 0 0 0-.123.283z" fill="#000"/></svg>