<svg id="圖層_1" xmlns="http://www.w3.org/2000/svg" viewBox="0 0 20 17"><style>.st0{enable-background:new}</style><path class="st0" d="M14 2.8l3.1 3c.1.1.1.1.1.2s0 .2-.1.2l-7.6 7.3-3.2.3H6c-.1 0-.2-.1-.3-.2-.1-.1-.1-.2-.2-.2v-.3l.4-3.1 7.6-7.3c.1-.1.2-.1.2-.1.1.1.2.1.3.2zm5.6-.8L17.9.4c-.3-.2-.6-.4-1-.4s-.7.1-1 .4l-1.2 1.2c-.1.1-.1.1-.1.2s0 .2.1.2l3.1 3c.2.1.2.1.3.1.1 0 .2 0 .2-.1l1.2-1.2c.4-.2.5-.5.5-.9 0-.3-.1-.7-.4-.9zm-6.3 9.5v3.4H2.2V4.2h8c.1 0 .2 0 .3-.1l1.4-1.3c0-.1.1-.1.1-.2v-.2c0-.1-.1-.1-.2-.2-.1 0-.1-.1-.2-.1H1.7c-.4 0-.9.2-1.2.5-.3.3-.5.7-.5 1.1v11.7c0 .4.2.8.5 1.1.3.3.7.5 1.2.5h12.2c.4 0 .9-.2 1.2-.5.3-.3.5-.7.5-1.1v-5.2c0-.1 0-.2-.1-.2 0-.1-.1-.1-.2-.1h-.2c-.1 0-.2.1-.2.1l-1.4 1.3c-.1 0-.2.1-.2.2z"/></svg>