<svg width="26" height="33" viewBox="0 0 26 33" xmlns="http://www.w3.org/2000/svg"><title>Fill 1</title><path d="M14 25.176C14 27.358 12.836 29 10.5 29 8.164 29 7 27.18 7 25.176v-7.352C7 15.936 8.164 14 10.5 14c2.336 0 3.5 1.816 3.5 3.824v7.352zm5.742-17.563c.348-.011.69-.002.948-.024.965-.083 1.922-.351 2.735-.895 1.29-.861 2.02-2.291 2.343-3.782.197-.913.29-1.899.193-2.833-6.29-.665-7.268 3.062-7.827 3.696-.56.634-.978 0-.978 0s-.7-1.938-2.431-2.925C12.299-.485 9.202.32 9.189.323c-.189.048-.12 1.405-.11 1.571.145 2.388 1.744 4.866 3.98 5.763a4.486 4.486 0 0 0 1.715.33c.48-.006 1.115-.303 1.543.009.49.358.394 1.186.244 1.697-.384 2.043-2.118 1.31-2.105 1.328a9.178 9.178 0 0 0-4.255-1.06C4.567 9.962 0 15.12 0 21.482 0 27.843 4.567 33 10.201 33s10.202-5.157 10.202-11.52c0-4.252-1.094-8.415-2.165-12.492-.309-1.18.618-1.347 1.504-1.375z" fill="#FFF" fill-rule="evenodd"/></svg>