<?xml version="1.0" encoding="utf-8"?>
<!-- Generator: Adobe Illustrator 24.3.0, SVG Export Plug-In . SVG Version: 6.00 Build 0)  -->
<svg version="1.1" id="圖層_1" xmlns="http://www.w3.org/2000/svg" xmlns:xlink="http://www.w3.org/1999/xlink" x="0px" y="0px"
	 viewBox="0 0 462 200" style="enable-background:new 0 0 462 200;" xml:space="preserve">
<style type="text/css">
	.st0{fill:none;stroke:#FFFFFF;stroke-width:13;stroke-linecap:round;stroke-linejoin:round;stroke-miterlimit:10;}
	.st1{fill:#FFFFFF;}
</style>
<rect x="20.9" y="18.9" class="st0" width="423.3" height="162.2"/>
<g>
	<path class="st1" d="M177.1,85l-4.2,8.2c-4.9-2-8.2-3.3-9.9-4.1v6.7h-25.2v13.9h24.4v8.5h-24.4v14.4h36.3v8.4H91.9v-8.4h36.7v-14.4
		h-25v-8.5h25V95.9h-25.4v-7.5c-3,1.4-6.3,2.7-10,4.2l-4.1-8.1c14-5.2,24.8-11.1,32.3-17.8h-7.9v-8.4H138
		C144.5,69,157.6,78,177.1,85z M159,87.2c-11.1-5.5-19.7-12-25.7-19.5c-5.9,6.9-15.1,13.5-27.5,19.5H159z"/>
	<path class="st1" d="M231.5,65.2c-4.6,2.6-10.1,4.9-16.6,6.6c-0.1,0.1-0.1,0.3-0.2,0.5c-0.1,0.3-0.1,0.4-0.2,0.5
		c6.1,2.6,11.5,5.3,16.4,7.9l-3.9,7.1c-6.1-3.7-11.5-6.5-16.4-8.4c-5,4.5-10.1,7.3-15.3,8.4l-4.8-7.1c6.9-1.9,11.7-4.2,14.3-7
		c2.6-2.7,3.7-8.6,3.4-17.4h8.1c0,2.4-0.1,4.8-0.2,7.4c3.7-1.3,7.3-3,10.5-5L231.5,65.2z M273.3,105.5h-8.4v-8.1h-65v8.1h-8.7V89.8
		h82.2V105.5z M204.8,69.3l-6.9,3.6c-1.4-3.8-3.6-7.7-6.6-11.7l7.2-3.5C200.9,60.9,203.1,64.8,204.8,69.3z M274.4,139.8l-7.3,3.8
		l-3.8-4.4c-18.7,1.1-41.3,2-68,2.5L193,134l26.2,0.3c3.2,0,6.1,0,8.8-0.1l-0.1-7.9h-25.6v-21.9h25.6v-4.9h8.5v4.9h25.5v21.9h-25.5
		v7.7l20.7-0.3c-2.6-2-4.2-3.3-4.9-3.7l7.9-3.4C264.9,129.9,269.7,134.3,274.4,139.8z M227.8,119.1v-7.6H211v7.6H227.8z M245.4,70.1
		l-7.2,3.7c-1.2-4.3-3-8.4-5.6-12.2l7.1-3.7C242.2,61.6,244.1,65.7,245.4,70.1z M274.2,81.3l-4.7,6.5c-6.4-3.6-12.3-6.3-17.6-8.3
		c-4,3.9-8.8,6.8-14.5,8.7l-4.7-6.7c6.4-2.2,10.9-4.7,13.4-7.5c2.5-2.8,3.6-8.6,3.2-17.5h8.2c0.1,2.6,0.1,4.8-0.2,6.7
		c3.4-0.9,6.9-2.6,10.7-5.1l4.7,6.6c-4.8,2.9-10.3,5.1-16.6,6.6c-0.1,0.8-0.3,1.3-0.4,1.6C262.7,75.3,268.8,78.2,274.2,81.3z
		 M253.4,119.1v-7.6h-17.1v7.6H253.4z"/>
	<path class="st1" d="M375.9,121.6l-4.7,7.8c-2.6-1.2-5.7-2.7-9.2-4.6v5.6c0,2.7-0.5,4.7-1.5,6c-1,1.3-2.2,2.2-3.6,2.6
		c-1.4,0.4-3.9,0.6-7.5,0.6c-1.8,0-3.5,0-4.9-0.1l-2.7-7.8c3.6,0.1,7,0.2,10.2,0.2c1.1,0,1.6-0.6,1.6-1.8v-4.7H336V143h-8.7v-17.3
		h-17.6v13.7H301v-13.9c-3.3,1.4-6.3,2.6-8.9,3.4l-4.7-7.5c9.1-2.5,16.5-5.9,22.1-10.2h-21.3v-6.8h28.6l3.2-3.9h-21.6V74.7h66.1
		v25.7h-34.8c-0.7,1.3-1.6,2.6-2.6,3.9H375v6.8h-19.4C360.9,115.5,367.6,119,375.9,121.6z M329.3,68.8h-11.6v3.7h-8.7v-3.7h-20.8
		v-7.1h20.8v-5h8.7v5h11.6V68.8z M356,84.7v-4h-48.9v4H356z M356,94v-3.9h-48.9V94H356z M351.7,118.1c-3.2-2.7-5.7-5-7.3-7h-22.5
		c-1.8,1.9-4.6,4.2-8.2,6.9h13.6v-4.7h8.7v4.8H351.7z M375,68.8h-20.8v3.7h-8.8v-3.7h-11.6v-7.1h11.6v-5h8.8v5H375V68.8z"/>
</g>
</svg>
