<?xml version="1.0" encoding="utf-8"?>
<!-- Generator: Adobe Illustrator 24.3.0, SVG Export Plug-In . SVG Version: 6.00 Build 0)  -->
<svg version="1.1" id="圖層_1" xmlns="http://www.w3.org/2000/svg" xmlns:xlink="http://www.w3.org/1999/xlink" x="0px" y="0px"
	 viewBox="0 0 49.5 49.5" style="enable-background:new 0 0 49.5 49.5;" xml:space="preserve">
<style type="text/css">
	.st0{fill:#6EC8E2;}
	.st1{fill:#FFFFFF;}
</style>
<path class="st0" d="M24.7,0C11.1,0,0,11.1,0,24.7c0,13.7,11.1,24.7,24.7,24.7c13.7,0,24.7-11.1,24.7-24.7C49.5,11.1,38.4,0,24.7,0z
	"/>
<path class="st1" d="M27.6,40.9c-0.3,1.3-1.6,1.6-2.9,1.6c-1.3,0-2.6-0.3-2.9-1.6c-0.5-1.9-1.4-6.6-1.4-8.9c0-2.3,2.1-2.9,4.3-2.9
	s4.3,0.6,4.3,2.9C29,34.3,28.1,39,27.6,40.9L27.6,40.9z M20.2,27.6c-1.2-1.2-2-2.9-1.9-4.8c0.1-3.3,2.8-6,6.1-6.1
	c3.6-0.1,6.7,2.8,6.7,6.4c0,1.8-0.7,3.4-1.9,4.6c-0.2,0.2-0.2,0.5,0,0.6c0.6,0.5,1.1,1,1.4,1.7c0.1,0.2,0.4,0.3,0.6,0.1
	c1.9-1.8,3.1-4.4,3-7.2c-0.1-5.1-4.2-9.2-9.3-9.4c-5.4-0.2-9.9,4.2-9.9,9.6c0,2.8,1.2,5.2,3,7c0.2,0.2,0.5,0.1,0.6-0.1
	c0.3-0.7,0.8-1.2,1.4-1.7C20.4,28.1,20.4,27.8,20.2,27.6L20.2,27.6z M24.7,8.4C16.5,8.4,9.8,15,9.8,23.3c0,6,3.5,11,8.4,13.4
	c0.3,0.1,0.6-0.1,0.6-0.4c-0.2-1-0.3-2.1-0.4-3c0-0.1-0.1-0.2-0.2-0.3c-3.2-2.1-5.2-5.7-5.2-9.8c0-6.4,5.3-11.6,11.7-11.7
	c6.5,0,11.8,5.3,11.8,11.7c0,4.1-2.1,7.8-5.4,9.9c-0.1,0.9-0.2,2-0.4,3.1c0,0.3,0.3,0.6,0.6,0.4c4.9-2.4,8.4-7.4,8.4-13.4
	C39.6,15,33,8.4,24.7,8.4z M24.7,19c-2.4,0-4.3,1.9-4.3,4.3s1.9,4.3,4.3,4.3s4.3-1.9,4.3-4.3S27.1,19,24.7,19z"/>
</svg>
