<svg id="圖層_1" xmlns="http://www.w3.org/2000/svg" viewBox="0 0 49.5 49.5"><style>.st0{fill:#6ec8e2}</style><path class="st0" d="M30.5 12.9H19c-3.3 0-6 2.7-6 6v11.6c0 3.3 2.7 6 6 6h11.6c3.3 0 6-2.7 6-6V18.9c-.1-3.3-2.8-6-6.1-6zm-5.6 19c-3.9 0-7.1-3.2-7.1-7.1s3.2-7.1 7.1-7.1 7.1 3.2 7.1 7.1-3.2 7.1-7.1 7.1zm7.5-13.1c-.9 0-1.7-.8-1.7-1.7 0-.9.8-1.7 1.7-1.7.9 0 1.7.8 1.7 1.7 0 .9-.7 1.7-1.7 1.7z"/><path class="st0" d="M24.9 20.1c-2.5 0-4.6 2.1-4.6 4.6 0 2.5 2.1 4.6 4.6 4.6s4.6-2.1 4.6-4.6c-.1-2.5-2.1-4.6-4.6-4.6z"/><path class="st0" d="M24.7 0C11.1 0 0 11.1 0 24.7c0 13.7 11.1 24.7 24.7 24.7 13.7 0 24.7-11.1 24.7-24.7C49.5 11.1 38.4 0 24.7 0zm14.6 30.5c0 4.8-3.9 8.7-8.7 8.7H19c-4.8 0-8.7-3.9-8.7-8.7V18.9c0-4.8 3.9-8.7 8.7-8.7h11.6c4.8 0 8.7 3.9 8.7 8.7v11.6z"/></svg>