<svg xmlns="http://www.w3.org/2000/svg" viewBox="0 0 20 20"><path d="M18.9 8.2L17.1 10c-.5.5-1.2.9-2 1s-1.5 0-2.2-.3l4.2-4.3c.1-.1.2-.3.3-.4s.1-.3.1-.5 0-.3-.1-.5-.2-.3-.3-.4l-1.8-1.8c-.1-.1-.3-.2-.4-.3-.2-.1-.3-.1-.5-.1s-.3 0-.5.1-.3.2-.4.3L9.3 7.2c-.4-.7-.5-1.5-.3-2.3.1-.8.5-1.5 1-2l1.8-1.8C12.5.4 13.5 0 14.5 0s1.9.4 2.6 1.1l1.8 1.8c.7.7 1.1 1.6 1.1 2.6s-.4 2-1.1 2.7zM6.5 13.5c-.1-.1-.2-.3-.3-.4-.1-.2-.1-.3-.1-.5s0-.3.1-.5.2-.3.3-.4l5.3-5.3c.2-.2.6-.4.9-.4.3 0 .6.1.9.4.2.2.4.6.4.9s-.1.6-.4.9l-5.3 5.3c-.1.1-.3.2-.4.3-.2.1-.3.1-.5.1s-.3 0-.5-.1-.3-.2-.4-.3zm-3.6 1.8l1.8 1.8c.1.1.3.2.4.3.2.1.3.1.5.1s.3 0 .5-.1.3-.2.4-.3l4.3-4.3c.3.7.4 1.5.3 2.2-.1.8-.5 1.5-1 2l-1.7 1.8c-.3.3-.8.6-1.2.8-.6.3-1 .4-1.5.4s-1-.1-1.4-.3c-.5-.2-.9-.5-1.2-.8l-2-1.9C.4 16.3 0 15.3 0 14.3s.4-1.9 1.1-2.6L2.9 10c.5-.5 1.3-.9 2-1 .8-.1 1.5 0 2.2.3l-4.3 4.3c-.1.1-.2.3-.3.4-.1.2-.1.3-.1.5s0 .3.1.5c.2 0 .3.2.4.3z"/></svg>