<svg width="20" height="20" viewBox="0 0 20 20" fill="none" xmlns="http://www.w3.org/2000/svg"><path d="M18.903 8.156L17.057 10a3.731 3.731 0 0 1-4.248.72l4.248-4.252a1.247 1.247 0 0 0 0-1.763l-1.763-1.77a1.246 1.246 0 0 0-1.763 0L9.28 7.189A3.738 3.738 0 0 1 10 2.936l1.841-1.84a3.743 3.743 0 0 1 5.293 0l1.768 1.762a3.751 3.751 0 0 1 0 5.302v-.004zM6.472 13.53a1.247 1.247 0 0 1 0-1.764l5.293-5.298a1.247 1.247 0 1 1 1.765 1.766l-5.3 5.296a1.245 1.245 0 0 1-1.762 0h.004zm-3.53 1.772l1.764 1.76a1.245 1.245 0 0 0 1.763 0l4.25-4.252a3.737 3.737 0 0 1-.72 4.252l-1.685 1.84a3.745 3.745 0 0 1-5.295 0l-1.923-1.918a3.749 3.749 0 0 1 0-5.297L2.94 10a3.737 3.737 0 0 1 4.255-.722l-4.25 4.252a1.251 1.251 0 0 0-.004 1.772z" fill="#000"/></svg>