<?xml version="1.0" standalone="no"?><!DOCTYPE svg PUBLIC "-//W3C//DTD SVG 1.1//EN" "http://www.w3.org/Graphics/SVG/1.1/DTD/svg11.dtd"><svg t="1636038443627" class="icon" viewBox="0 0 1024 1024" version="1.1" xmlns="http://www.w3.org/2000/svg" p-id="9904" xmlns:xlink="http://www.w3.org/1999/xlink" width="200" height="200"><defs><style type="text/css"></style></defs><path d="M750.1 716.4c18.5-25.7 29.4-57.2 29.4-91.3 0-86.4-70-156.4-156.4-156.4s-156.4 70-156.4 156.4 70 156.4 156.4 156.4c30.2 0 58.3-8.6 82.2-23.3l106.2 126.6c10.8 12.9 30.2 14.6 43 3.8 12.9-10.8 14.6-30.2 3.8-43L750.1 716.4z m-228.4-91.3c0-55.9 45.5-101.4 101.4-101.4s101.4 45.5 101.4 101.4S679 726.5 623.1 726.5 521.7 681 521.7 625.1z" p-id="9905"></path><path d="M750.6 127.5H393.5l-12.3 11.3-219.8 219.1v422.9c0 63.2 51.7 114.9 114.9 114.9h193.2c16.6 0 30-13.4 30-30s-13.4-30-30-30H276.3c-14.5 0-28.3-5.7-38.7-16.2-10.4-10.4-16.2-24.2-16.2-38.7V398.7h182.4c17.2 0 31.1-13.9 31.1-31.1V187.5h315.7c14.5 0 28.3 5.7 38.7 16.2 10.4 10.4 16.2 24.2 16.2 38.7v151.4c0 16.6 13.4 30 30 30s30-13.4 30-30V242.4c0-63.2-51.7-114.9-114.9-114.9z m-374.8 212h-112l112-111.8v111.8z" p-id="9906"></path></svg>