<svg width="20" height="20" viewBox="0 0 20 20" fill="none" xmlns="http://www.w3.org/2000/svg"><path d="M7.853 0C3.518 0 0 3.544 0 7.88c0 4.348 3.518 7.878 7.853 7.878 4.334 0 7.853-3.53 7.853-7.879C15.719 3.544 12.187 0 7.853 0zm0 14.201c-3.465 0-6.288-2.832-6.288-6.308 0-3.477 2.823-6.31 6.288-6.31 3.465 0 6.287 2.833 6.287 6.31A6.291 6.291 0 0 1 7.853 14.2zm11.612 2.685l-2.863-2.873a1.812 1.812 0 0 0-2.569 0 1.827 1.827 0 0 0 0 2.578l2.863 2.872c.71.711 1.86.711 2.569 0a1.827 1.827 0 0 0 0-2.577z" fill="#000"/></svg>